Coordinates
version=1
nRows=19
nColumns=24
inDegrees=yes

Units are S.I. units (second, meters, Newtons, ...)
Angles are in degrees.

endheader
time	pelvis_tilt	pelvis_list	pelvis_rotation	pelvis_tx	pelvis_ty	pelvis_tz	hip_flexion_r	hip_adduction_r	hip_rotation_r	knee_angle_r	ankle_angle_r	subtalar_angle_r	mtp_angle_r	hip_flexion_l	hip_adduction_l	hip_rotation_l	knee_angle_l	ankle_angle_l	subtalar_angle_l	mtp_angle_l	lumbar_extension	lumbar_bending	lumbar_rotation
      4.68500000	    -14.35846680	      2.90368499	     -9.13580328	     -0.28753331	     -0.03000164	      0.02459138	     -1.55132262	     -1.41296680	      3.10446336	    -12.50912118	      4.02817042	     12.20082931	     15.69984902	     36.91116262	     -2.95843861	    -19.47627682	     -7.20938313	    -11.94771719	     11.60482107	     13.64416188	     12.16988492	     -3.15426824	     10.30297427
      4.69000000	    -14.36207303	      3.03902067	     -9.27563381	     -0.28115613	     -0.03038354	      0.02425062	     -1.58081440	     -1.71431970	      2.92499711	    -13.01094904	      3.76420688	     12.89269711	     16.04592481	     36.67972953	     -2.82141188	    -19.60427463	     -7.43888474	    -12.14386659	     11.41880855	     13.69116404	     12.24439488	     -3.32521039	     10.40187021
      4.69500000	    -14.33171288	      3.17427639	     -9.34123658	     -0.27478359	     -0.03068736	      0.02377644	     -1.64705694	     -2.03367181	      2.62745421	    -13.50072768	      3.42031029	     13.61348197	     16.60733247	     36.40865337	     -2.61850988	    -19.69199248	     -7.58804195	    -12.54141212	     11.10838299	     13.88803142	     12.26901078	     -3.51877859	     10.40371105
      4.70000000	    -14.34513197	      3.35002207	     -9.47675005	     -0.26844818	     -0.03092611	      0.02338385	     -1.60920177	     -2.38912235	      2.43624738	    -14.05833288	      3.05452603	     14.33130989	     17.07360211	     36.15239731	     -2.41962360	    -19.82738608	     -7.63519161	    -13.07665609	     10.71425125	     14.07999295	     12.34988200	     -3.72587425	     10.52372504
      4.70500000	    -14.39796938	      3.56335303	     -9.68098827	     -0.26218412	     -0.03109803	      0.02312878	     -1.46417786	     -2.76353762	      2.40683419	    -14.70308856	      2.69184253	     14.94925164	     17.32240487	     35.91829865	     -2.23407845	    -20.02188698	     -7.61501626	    -13.64534134	     10.30873030	     14.10512370	     12.48538680	     -3.95378616	     10.70305089
      4.71000000	    -14.37769575	      3.78618132	     -9.72871861	     -0.25585080	     -0.03114724	      0.02260249	     -1.39753946	     -3.20107890	      1.96226501	    -15.35365792	      2.23279013	     15.87108154	     17.83455043	     35.61029358	     -1.90374629	    -20.04111380	     -7.49026402	    -14.50914537	      9.51249277	     14.41207072	     12.53212799	     -4.24238661	     10.71113822
      4.71500000	    -14.41380776	      4.07126062	     -9.84974430	     -0.24955446	     -0.03113595	      0.02221649	     -1.20968560	     -3.68080830	      1.72207965	    -16.06566489	      1.73648922	     16.62778090	     18.27614935	     35.35970145	     -1.57567483	    -20.12935029	     -7.35458058	    -15.36349098	      8.70656189	     14.50983232	     12.66002323	     -4.57092087	     10.81887102
      4.72000000	    -14.44812316	      4.38684067	     -9.92107394	     -0.24327620	     -0.03105980	      0.02179930	     -0.99029079	     -4.19810248	      1.41469617	    -16.82680844	      1.20269315	     17.39770391	     18.73890046	     35.12550579	     -1.18884985	    -20.11511900	     -7.23089591	    -16.25828185	      7.75998088	     14.49097996	     12.78504355	     -4.94787077	     10.86822316
      4.72500000	    -14.49834824	      4.72510778	     -9.97735563	     -0.23687884	     -0.03092186	      0.02139164	     -0.73779460	     -4.74222111	      1.07713435	    -17.60179488	      0.55551138	     18.14656132	     19.24022359	     34.90693603	     -0.77160198	    -20.00939159	     -7.12971255	    -17.10148433	      6.69196164	     14.30493352	     12.95512303	     -5.35090396	     10.90966594
      4.73000000	    -14.54753801	      5.05058014	    -10.07189074	     -0.23063697	     -0.03072314	      0.02100592	     -0.40623345	     -5.28127675	      0.72520315	    -18.49199501	     -0.13036536	     18.95234270	     19.66387759	     34.71964360	     -0.39799600	    -19.86893183	     -7.12149008	    -17.84114504	      5.59457889	     13.92699391	     13.10185973	     -5.72932701	     10.99655792
      4.73500000	    -14.61442636	      5.38864446	    -10.15182444	     -0.22427502	     -0.03049411	      0.02062965	     -0.04038338	     -5.83707343	      0.35891109	    -19.39643070	     -0.93338279	     19.72995565	     20.09453013	     34.55661107	     -0.00913049	    -19.65300826	     -7.16574009	    -18.47763303	      4.46222513	     13.41248731	     13.29333940	     -6.12058598	     11.06966746
      4.74000000	    -14.67921742	      5.71095512	    -10.16736265	     -0.21803666	     -0.03026629	      0.02017839	      0.36935101	     -6.38563214	     -0.11439351	    -20.38023072	     -1.80670564	     20.45547624	     20.67693197	     34.43385824	      0.39404240	    -19.28386744	     -7.30246172	    -19.03454106	      3.29610165	     12.73650261	     13.44783202	     -6.51956638	     11.05899203
      4.74500000	    -14.76956873	      6.03497896	    -10.18175352	     -0.21173223	     -0.03003321	      0.01974674	      0.83708328	     -6.94186165	     -0.60800971	    -21.39588473	     -2.81776918	     21.13843862	     21.34601969	     34.34610521	      0.78538092	    -18.91814523	     -7.48836472	    -19.44187956	      2.25114267	     12.00686669	     13.64493742	     -6.91348014	     11.05224361
      4.75000000	    -14.86428796	      6.31518941	    -10.20675966	     -0.20551088	     -0.02977445	      0.01928270	      1.35722956	     -7.46672234	     -1.12985992	    -22.46009101	     -4.01018366	     21.78775160	     22.25099442	     34.27784982	      1.12044322	    -18.51447906	     -7.73058491	    -19.68695871	      1.32865791	     11.24068877	     13.82494731	     -7.25266207	     11.06321190
      4.75500000	    -14.98474316	      6.63386654	    -10.20112053	     -0.19926438	     -0.02955098	      0.01883845	      1.95616337	     -8.04001238	     -1.71162209	    -23.60494507	     -5.26078670	     22.36845701	     23.06185384	     34.24928023	      1.48915763	    -18.22640077	     -7.98024939	    -19.85955571	      0.61705499	     10.66143307	     14.04292916	     -7.64243079	     11.03742429
      4.76000000	    -15.11425249	      6.90978644	    -10.18311421	     -0.19312769	     -0.02931902	      0.01833261	      2.61158347	     -8.58899076	     -2.34984834	    -24.79824313	     -6.69668305	     22.89877425	     24.11697834	     34.24195022	      1.81590549	    -17.91990628	     -8.26177794	    -19.89252765	      0.05798356	     10.12213316	     14.24015316	     -7.98326161	     11.00786874
      4.76500000	    -15.25799146	      7.17621907	    -10.13838880	     -0.18697941	     -0.02908372	      0.01777848	      3.31287800	     -9.14543809	     -3.03006739	    -26.02085693	     -8.30274737	     23.33215807	     25.30266064	     34.25057666	      2.14025239	    -17.68408995	     -8.54834004	    -19.80531135	     -0.30178569	      9.71124205	     14.45006582	     -8.31594214	     10.93987988
      4.77000000	    -15.41238920	      7.41197376	    -10.06897606	     -0.18091876	     -0.02883770	      0.01716105	      4.06093249	     -9.68580237	     -3.73516517	    -27.26725598	    -10.10401963	     23.62609387	     26.77353921	     34.27523370	      2.44380820	    -17.45523026	     -8.85043097	    -19.60247598	     -0.51168648	      9.34157809	     14.64563070	     -8.61939466	     10.84158351
      4.77500000	    -15.56584138	      7.62238907	     -9.98859902	     -0.17492635	     -0.02856038	      0.01650445	      4.84044472	    -10.21257324	     -4.42828442	    -28.52810720	    -12.08120919	     23.76713887	     28.44078758	     34.29683510	      2.72759146	    -17.26062717	     -9.15804902	    -19.29258400	     -0.57951832	      9.01731433	     14.82089304	     -8.89595022	     10.72309262
